<?xml version="1.0" encoding="utf-8"?><!DOCTYPE svg PUBLIC "-//W3C//DTD SVG 1.1//EN" "http://www.w3.org/Graphics/SVG/1.1/DTD/svg11.dtd"><svg version="1.1" xmlns="http://www.w3.org/2000/svg" xmlns:xlink="http://www.w3.org/1999/xlink" width="900" height="750" viewBox="0 0 900 750"><g class="svg-logo"><g class="base"><g class="logo-element diamond"><polygon points="722.63,375 450,570.896 177.37,375 450,179.104" fill="none" stroke="#000" stroke-width="1"></polygon></g></g><g class="swag"><g class="logo-element outline-edge-dashed"><polyline fill="none" stroke="#000000" stroke-width="3" points="697.823,371.499 702.695,375 697.823,378.501"></polyline><line fill="none" stroke="#000000" stroke-width="3" stroke-dasharray="11.9666,11.9666" x1="688.104" y1="385.484" x2="459.731" y2="549.579"></line><polyline fill="none" stroke="#000000" stroke-width="3" points="454.873,553.07 450,556.571 445.127,553.07"></polyline><line fill="none" stroke="#000000" stroke-width="3" stroke-dasharray="11.9666,11.9666" x1="435.409" y1="546.088" x2="207.036" y2="381.992"></line><polyline fill="none" stroke="#000000" stroke-width="3" points="202.177,378.501 197.305,375 202.177,371.499"></polyline><line fill="none" stroke="#000000" stroke-width="3" stroke-dasharray="11.9666,11.9666" x1="211.896" y1="364.516" x2="440.269" y2="200.42"></line><polyline fill="none" stroke="#000000" stroke-width="3" points="445.127,196.929 450,193.428 454.873,196.929"></polyline><line fill="none" stroke="#000000" stroke-width="3" stroke-dasharray="11.9666,11.9666" x1="464.591" y1="203.912" x2="692.964" y2="368.008"></line></g></g><g class="text"><g transform="translate(450,399)" text-anchor="middle" class="logo-element single-line"><path d="M50.05 0L29.26-48.02L27.93-48.02L9.45-5.25C9.10-4.41 8.47-3.85 7.42-3.85C6.16-3.85 5.32-4.69 5.04-5.74L1.05-4.97C1.61-1.89 4.41 0.28 7.42 0.28C9.80 0.28 12.18-1.05 13.16-3.50L18.27-15.89L38.92-15.89L45.57 0ZM27.86-38.64L28.56-40.95L29.33-38.64L37.24-19.88L19.95-19.88ZM62.30-3.99L62.30-47.88L58.03-47.88L58.03 0L85.19 0L85.19-3.99ZM90.30-10.08C92.96-3.08 100.17 1.75 107.45 1.75C116.27 1.75 122.85-5.32 122.85-13.37C122.85-18.41 120.26-22.54 114.03-25.83C108.71-28.70 98.91-31.57 98.91-38.08C98.91-42.21 102.90-45.57 107.80-45.57C110.95-45.57 114.80-44.17 114.80-41.23C114.80-39.69 113.75-38.29 112.21-38.71L111.93-35.07C115.85-34.65 118.72-37.38 118.72-41.16C118.72-44.52 116.48-47.46 112.14-48.79C110.81-49.21 109.27-49.42 107.80-49.42C100.87-49.42 95.06-44.73 95.06-37.94C95.06-28.91 105.42-25.76 112-22.33C115.92-20.30 119-18.13 119-13.30C119-7.28 114.31-2.10 107.38-2.10C101.78-2.10 96.46-5.53 93.87-11.48Z" fill="#000" transform="translate(-62,0)"></path></g><g text-anchor="middle" transform="translate(450,495)" class="logo-element est"><path d="M3.78-2.07Q5.21-0.76 7.18-0.76Q9.29-0.76 10.78-2.26Q10.97-2.45 11.14-2.65L12.21-2.27Q11.92-1.86 11.54-1.49Q9.74 0.31 7.18 0.31Q4.63 0.31 2.82-1.49Q1.01-3.30 1.01-5.86Q1.01-8.41 2.82-10.22Q4.63-12.03 7.18-12.03Q9.37-12.03 11.01-10.71Q11.28-10.49 11.54-10.22Q11.65-10.12 11.74-10.02L10.97-9.25L3.78-2.07M10.23-9.94Q8.92-10.95 7.18-10.95Q5.08-10.95 3.58-9.46Q2.09-7.97 2.09-5.86Q2.09-4.12 3.10-2.81L10.23-9.94ZM17.94-5.67Q16.64-6.37 16.15-6.86Q15.37-7.64 15.37-8.73Q15.37-9.83 16.15-10.61Q16.92-11.39 18.01-11.39Q19.11-11.39 19.83-10.67Q20.53-9.96 20.53-9.06L20.53-9.01L19.65-8.66Q19.54-9.51 19.12-9.94Q18.70-10.37 18.01-10.37Q17.34-10.37 16.86-9.89Q16.37-9.41 16.37-8.73Q16.37-8.05 16.86-7.57Q17.14-7.29 18.05-6.72Q19.48-5.93 20.09-5.32Q21.05-4.36 21.05-3.02Q21.05-1.65 20.09-0.69Q19.14 0.27 17.78 0.27Q16.42 0.27 15.46-0.69Q14.51-1.65 14.51-2.80L15.51-3.05Q15.51-2.07 16.18-1.40Q16.85-0.74 17.78-0.74Q18.71-0.74 19.38-1.40Q20.05-2.07 20.05-3.02Q20.05-3.95 19.38-4.62Q19.02-4.98 17.94-5.67ZM25.65-11.03L25.65-15.72L26.66-15.72L26.66-11.03L28.91-11.03L28.91-10.02L26.66-10.02L26.66 0L25.65 0L25.65-10.02L23.40-10.02L23.40-11.03L25.65-11.03ZM30.79-1.85Q31.21-1.85 31.51-1.56Q31.80-1.27 31.80-0.85Q31.80-0.43 31.51-0.13Q31.21 0.16 30.79 0.16Q30.38 0.16 30.08-0.13Q29.78-0.43 29.78-0.85Q29.78-1.27 30.08-1.56Q30.38-1.85 30.79-1.85ZM41.84 0Q42.36-3.48 44.22-4.87Q46.08-6.26 47.50-7.33Q48.93-8.40 50.16-9.74Q51.38-11.07 51.38-12.85Q51.38-14.63 50.12-15.89Q48.86-17.15 47.08-17.15Q45.31-17.15 44.05-15.89Q42.97-14.81 42.81-13.32L41.79-13.69Q42.05-15.37 43.29-16.63Q44.87-18.22 47.08-18.22Q49.30-18.22 50.87-16.64Q52.44-15.07 52.44-12.85Q52.44-10.64 50.90-8.98Q49.85-7.85 48.43-6.78Q47.00-5.72 45.21-4.38Q43.43-3.04 42.99-1.01L52.44-1.01L52.44 0L41.84 0ZM66.25-11.80Q66.25-13.91 64.75-15.40Q63.26-16.89 61.15-16.89Q59.04-16.89 57.54-15.40Q56.05-13.91 56.05-11.80L56.05-5.85Q56.05-3.74 57.54-2.25Q59.04-0.76 61.15-0.76Q63.26-0.76 64.75-2.25Q66.25-3.74 66.25-5.85L66.25-11.80M67.32-5.85Q67.32-3.30 65.51-1.49Q63.71 0.31 61.15 0.31Q58.60 0.31 56.79-1.49Q54.98-3.30 54.98-5.85L54.98-11.80Q54.98-14.35 56.79-16.16Q58.60-17.97 61.15-17.97Q63.71-17.97 65.51-16.16Q67.32-14.35 67.32-11.80L67.32-5.85ZM76.22-17.97L76.22 0L75.21 0L75.21-16.19L74.14-16.19L75.52-17.97L76.22-17.97ZM88.60-10.03L87.75-10.05L87.75-11.06Q88.80-11.07 89.47-11.33Q90.14-11.59 90.92-12.42Q91.70-13.25 91.70-14.40Q91.70-15.55 90.89-16.36Q90.08-17.16 88.93-17.16Q87.80-17.16 86.98-16.36Q86.53-15.90 86.32-15.33L85.35-15.71Q85.60-16.50 86.22-17.09Q87.35-18.22 88.93-18.22Q90.54-18.22 91.66-17.09Q92.77-15.96 92.77-14.40Q92.77-12.80 91.92-11.89Q91.07-10.97 90.33-10.67Q91.94-10.13 93.01-8.98Q94.55-7.33 94.55-5.12Q94.55-2.90 92.98-1.33Q91.42 0.25 89.19 0.25Q86.98 0.25 85.41-1.34Q84.16-2.59 83.90-4.28L84.92-4.65Q85.08-3.16 86.16-2.08Q87.43-0.82 89.19-0.82Q90.98-0.82 92.24-2.08Q93.49-3.34 93.49-5.12Q93.49-6.90 92.27-8.23Q91.05-9.57 88.60-10.03Z" fill="rgba(225,17,17,1)" transform="translate(-48,0)"></path></g></g></g></svg>