<?xml version="1.0" standalone="no"?>
<!DOCTYPE svg PUBLIC "-//W3C//DTD SVG 1.0//EN" "http://www.w3.org/TR/2001/REC-SVG-20010904/DTD/svg10.dtd">
<svg xmlns="http://www.w3.org/2000/svg" xmlns:xlink="http://www.w3.org/1999/xlink" id="body_1" width="307" height="230">

<g transform="matrix(0.5620035 0 0 0.5620035 -98.91261 -95.41128)">
	<g>
		<g>
			<g>
                <path d="M722.63 375L450 570.896L177.37 375L450 179.104L722.63 375" stroke="#000000" stroke-width="1" fill="none" />
			</g>
		</g>
		<g>
			<g>
                <path d="M697.823 371.499L702.695 375L697.823 378.501" stroke="#000000" stroke-width="3" fill="none" />
                <path d="M688.104 385.484L459.731 549.579" stroke="#000000" stroke-width="3" stroke-dasharray="11.9666,11.9666" fill="none" />
                <path d="M454.873 553.07L450 556.571L445.127 553.07" stroke="#000000" stroke-width="3" fill="none" />
                <path d="M435.409 546.088L207.036 381.992" stroke="#000000" stroke-width="3" stroke-dasharray="11.9666,11.9666" fill="none" />
                <path d="M202.177 378.501L197.305 375L202.177 371.499" stroke="#000000" stroke-width="3" fill="none" />
                <path d="M211.896 364.516L440.269 200.42" stroke="#000000" stroke-width="3" stroke-dasharray="11.9666,11.9666" fill="none" />
                <path d="M445.127 196.929L450 193.428L454.873 196.929" stroke="#000000" stroke-width="3" fill="none" />
                <path d="M464.591 203.912L692.964 368.008" stroke="#000000" stroke-width="3" stroke-dasharray="11.9666,11.9666" fill="none" />
			</g>
		</g>
		<g>
			<g transform="matrix(1 0 0 1 450 399)">
                <path transform="matrix(1 0 0 1 -62 -0)"  d="M50.05 0L29.26 -48.02L27.93 -48.02L9.45 -5.25C 9.1 -4.41 8.47 -3.85 7.42 -3.85C 6.16 -3.85 5.32 -4.69 5.04 -5.74L5.04 -5.74L1.05 -4.97C 1.61 -1.89 4.41 0.28 7.42 0.28C 9.8 0.28 12.18 -1.05 13.16 -3.5L13.16 -3.5L18.27 -15.89L38.92 -15.89L45.57 0L50.05 0zM27.86 -38.64L28.56 -40.95L29.33 -38.64L37.24 -19.88L19.95 -19.88zM62.3 -3.99L62.3 -47.88L58.03 -47.88L58.03 0L85.19 0L85.19 -3.99zM90.3 -10.08C 92.96 -3.08 100.17 1.75 107.45 1.75C 116.27 1.75 122.85 -5.32 122.85 -13.37C 122.85 -18.41 120.26 -22.54 114.03 -25.83C 108.71 -28.7 98.91 -31.57 98.91 -38.08C 98.91 -42.21 102.9 -45.57 107.8 -45.57C 110.95 -45.57 114.8 -44.17 114.8 -41.23C 114.8 -39.69 113.75 -38.29 112.21 -38.71L112.21 -38.71L111.93 -35.07C 115.85 -34.65 118.72 -37.38 118.72 -41.16C 118.72 -44.52 116.48 -47.46 112.14 -48.79C 110.81 -49.21 109.27 -49.42 107.8 -49.42C 100.87 -49.42 95.06 -44.73 95.06 -37.94C 95.06 -28.91 105.42 -25.76 112 -22.33C 115.92 -20.3 119 -18.13 119 -13.3C 119 -7.28 114.31 -2.1 107.38 -2.1C 101.78 -2.1 96.46 -5.53 93.87 -11.48z" stroke="none" fill="#000000" fill-rule="nonzero" />
			</g>
			<g transform="matrix(1 0 0 1 450 495)">
                <path transform="matrix(1 0 0 1 -48 -0)"  d="M3.78 -2.07C 4.7333336 -1.1966667 5.866667 -0.76 7.18 -0.76C 8.586667 -0.76 9.786667 -1.26 10.78 -2.26C 10.906667 -2.3866668 11.026667 -2.516667 11.14 -2.65L11.14 -2.65L12.21 -2.27C 12.016666 -1.9966667 11.793333 -1.7366667 11.54 -1.49C 10.34 -0.29 8.886667 0.31 7.18 0.31C 5.4800005 0.31 4.0266666 -0.29 2.82 -1.49C 1.6133333 -2.6966667 1.01 -4.1533337 1.01 -5.86C 1.01 -7.56 1.6133333 -9.013333 2.82 -10.22C 4.0266666 -11.426667 5.4800005 -12.030001 7.18 -12.03C 8.64 -12.030001 9.916667 -11.59 11.01 -10.71C 11.190001 -10.5633335 11.366667 -10.4 11.54 -10.22C 11.613333 -10.153334 11.68 -10.086667 11.74 -10.02L11.74 -10.02L10.97 -9.25L3.78 -2.07zM10.23 -9.94C 9.356667 -10.613334 8.34 -10.950001 7.18 -10.95C 5.78 -10.950001 4.58 -10.453334 3.58 -9.46C 2.5866666 -8.466667 2.09 -7.266667 2.09 -5.86C 2.09 -4.7 2.4266667 -3.6833334 3.1 -2.81L3.1 -2.81L10.23 -9.94zM17.94 -5.67C 17.073334 -6.1366673 16.476665 -6.533334 16.15 -6.86C 15.63 -7.38 15.370001 -8.003333 15.37 -8.73C 15.370001 -9.463333 15.63 -10.09 16.15 -10.61C 16.663334 -11.13 17.283335 -11.39 18.01 -11.39C 18.743334 -11.39 19.35 -11.150001 19.83 -10.67C 20.296667 -10.196667 20.53 -9.660001 20.53 -9.06L20.53 -9.06L20.53 -9.01L19.65 -8.66C 19.576668 -9.226667 19.400002 -9.653334 19.12 -9.94C 18.84 -10.226666 18.470001 -10.37 18.01 -10.37C 17.563334 -10.37 17.18 -10.21 16.86 -9.89C 16.533335 -9.570001 16.37 -9.183333 16.37 -8.73C 16.37 -8.276667 16.533335 -7.8900003 16.86 -7.57C 17.046667 -7.3833337 17.443333 -7.1000004 18.05 -6.72C 19.003334 -6.1933336 19.683334 -5.726667 20.09 -5.32C 20.73 -4.6800003 21.05 -3.9133334 21.05 -3.02C 21.05 -2.1066666 20.73 -1.33 20.09 -0.69C 19.456667 -0.049999997 18.686668 0.27 17.78 0.27C 16.873333 0.27 16.1 -0.049999997 15.46 -0.69C 14.826668 -1.33 14.510001 -2.0333333 14.51 -2.8L14.51 -2.8L15.51 -3.05C 15.51 -2.3966665 15.733334 -1.8466667 16.18 -1.4C 16.626667 -0.96000004 17.16 -0.74 17.78 -0.74C 18.400002 -0.74 18.933334 -0.96000004 19.38 -1.4C 19.826668 -1.8466667 20.05 -2.3866668 20.05 -3.02C 20.05 -3.64 19.826668 -4.173333 19.38 -4.62C 19.14 -4.86 18.66 -5.21 17.94 -5.67zM25.65 -11.03L25.65 -15.72L26.66 -15.72L26.66 -11.03L28.91 -11.03L28.91 -10.02L26.66 -10.02L26.66 0L25.65 0L25.65 -10.02L23.4 -10.02L23.4 -11.03L25.65 -11.03zM30.79 -1.85C 31.070002 -1.85 31.310001 -1.7533333 31.51 -1.56C 31.703335 -1.3666667 31.800001 -1.1300001 31.8 -0.85C 31.800001 -0.57000005 31.703335 -0.33 31.51 -0.13C 31.310001 0.06333333 31.070002 0.16 30.79 0.16C 30.516668 0.16 30.28 0.06333333 30.08 -0.13C 29.880001 -0.33 29.780003 -0.57000005 29.78 -0.85C 29.780003 -1.1300001 29.880001 -1.3666667 30.08 -1.56C 30.28 -1.7533333 30.516668 -1.85 30.79 -1.85zM41.84 0C 42.18667 -2.3200002 42.980003 -3.9433336 44.22 -4.87C 45.460003 -5.796667 46.553337 -6.616667 47.5 -7.33C 48.45334 -8.043333 49.340004 -8.846666 50.16 -9.74C 50.973335 -10.626667 51.38 -11.663334 51.38 -12.85C 51.38 -14.036668 50.96 -15.050001 50.12 -15.89C 49.28 -16.73 48.26667 -17.15 47.08 -17.15C 45.9 -17.15 44.890003 -16.73 44.05 -15.89C 43.33 -15.170001 42.916668 -14.3133335 42.81 -13.32L42.81 -13.32L41.79 -13.69C 41.963333 -14.81 42.463333 -15.79 43.29 -16.63C 44.343334 -17.689999 45.606667 -18.22 47.08 -18.22C 48.560005 -18.22 49.823334 -17.693333 50.87 -16.64C 51.916664 -15.593334 52.44 -14.330001 52.44 -12.85C 52.44 -11.376667 51.926666 -10.086667 50.9 -8.98C 50.2 -8.226667 49.376667 -7.493334 48.43 -6.78C 47.47667 -6.0733337 46.403336 -5.2733335 45.21 -4.38C 44.023335 -3.4866667 43.283337 -2.3633332 42.99 -1.01L42.99 -1.01L52.44 -1.01L52.44 0L41.84 0zM66.25 -11.8C 66.25 -13.206667 65.75 -14.406667 64.75 -15.4C 63.756668 -16.393333 62.556667 -16.89 61.15 -16.89C 59.743336 -16.89 58.54 -16.393333 57.54 -15.4C 56.54667 -14.406667 56.050003 -13.206667 56.05 -11.8L56.05 -11.8L56.05 -5.85C 56.050003 -4.4433336 56.54667 -3.2433333 57.54 -2.25C 58.54 -1.2566667 59.743336 -0.76 61.15 -0.76C 62.556667 -0.76 63.756668 -1.2566667 64.75 -2.25C 65.75 -3.2433333 66.25 -4.4433336 66.25 -5.85L66.25 -5.85L66.25 -11.8zM67.32 -5.85C 67.32 -4.15 66.71667 -2.6966667 65.51 -1.49C 64.310005 -0.29 62.85667 0.31 61.15 0.31C 59.45 0.31 57.996666 -0.29 56.79 -1.49C 55.583336 -2.6966667 54.980003 -4.15 54.98 -5.85L54.98 -5.85L54.98 -11.8C 54.980003 -13.500001 55.583336 -14.953335 56.79 -16.16C 57.996666 -17.366667 59.45 -17.97 61.15 -17.97C 62.85667 -17.97 64.310005 -17.366667 65.51 -16.16C 66.71667 -14.953335 67.32 -13.500001 67.32 -11.8L67.32 -11.8L67.32 -5.85zM76.22 -17.97L76.22 0L75.21 0L75.21 -16.19L74.14 -16.19L75.52 -17.97L76.22 -17.97zM88.6 -10.03L87.75 -10.05L87.75 -11.06C 88.450005 -11.066668 89.02334 -11.156667 89.47 -11.33C 89.91667 -11.503334 90.4 -11.866667 90.92 -12.42C 91.44 -12.973334 91.7 -13.633334 91.7 -14.4C 91.7 -15.166667 91.43 -15.820001 90.89 -16.36C 90.350006 -16.893333 89.69667 -17.16 88.93 -17.16C 88.17667 -17.16 87.52667 -16.893333 86.98 -16.36C 86.68001 -16.053333 86.46001 -15.710001 86.32 -15.33L86.32 -15.33L85.35 -15.71C 85.51666 -16.236668 85.80667 -16.696667 86.22 -17.09C 86.973335 -17.843334 87.87666 -18.22 88.93 -18.22C 90.003334 -18.22 90.91334 -17.843334 91.66 -17.09C 92.4 -16.336666 92.77 -15.440001 92.77 -14.4C 92.77 -13.333334 92.486664 -12.496668 91.92 -11.89C 91.35333 -11.276667 90.82333 -10.870001 90.33 -10.67C 91.403336 -10.31 92.29667 -9.746667 93.01 -8.98C 94.03667 -7.88 94.55 -6.5933332 94.55 -5.12C 94.55 -3.64 94.02667 -2.3766668 92.98 -1.33C 91.94 -0.2766667 90.67667 0.25 89.19 0.25C 87.716675 0.25 86.45667 -0.28000003 85.41 -1.34C 84.576675 -2.1733334 84.07333 -3.1533334 83.9 -4.28L83.9 -4.28L84.92 -4.65C 85.02667 -3.6566668 85.44 -2.8000002 86.16 -2.08C 87.00667 -1.24 88.01667 -0.82000005 89.19 -0.82C 90.38334 -0.82000005 91.4 -1.24 92.24 -2.08C 93.07333 -2.92 93.490005 -3.9333334 93.49 -5.12C 93.490005 -6.3066673 93.083336 -7.3433337 92.27 -8.23C 91.45667 -9.123333 90.23334 -9.723333 88.6 -10.03z" stroke="none" fill="#E11111" fill-rule="nonzero" />
			</g>
		</g>
	</g>
</g>
</svg>